<mxfile host="app.diagrams.net" modified="2023-03-14T10:17:35.058Z" agent="5.0 (Windows NT 10.0; Win64; x64) AppleWebKit/537.36 (KHTML, like Gecko) Chrome/110.0.0.0 Safari/537.36 Edg/110.0.1587.69" etag="d9SYjLSitkoWJB0P-lfd" version="20.4.1" type="github">
  <diagram id="Y1s6XidtlsMYhzxnC9k6" name="第 1 页">
    <mxGraphModel dx="1422" dy="762" grid="1" gridSize="10" guides="1" tooltips="1" connect="1" arrows="1" fold="1" page="1" pageScale="1" pageWidth="827" pageHeight="1169" math="0" shadow="0">
      <root>
        <mxCell id="0" />
        <mxCell id="1" parent="0" />
        <mxCell id="w5qXUssnNhhFmJlIJuAB-5" style="edgeStyle=orthogonalEdgeStyle;rounded=0;orthogonalLoop=1;jettySize=auto;html=1;exitX=0;exitY=0.5;exitDx=0;exitDy=0;sketch=1;" edge="1" parent="1" source="w5qXUssnNhhFmJlIJuAB-1" target="w5qXUssnNhhFmJlIJuAB-4">
          <mxGeometry relative="1" as="geometry" />
        </mxCell>
        <mxCell id="w5qXUssnNhhFmJlIJuAB-8" style="edgeStyle=orthogonalEdgeStyle;rounded=0;sketch=1;hachureGap=4;jiggle=2;orthogonalLoop=1;jettySize=auto;html=1;exitX=0.5;exitY=1;exitDx=0;exitDy=0;fontFamily=Architects Daughter;fontSource=https%3A%2F%2Ffonts.googleapis.com%2Fcss%3Ffamily%3DArchitects%2BDaughter;fontSize=12;" edge="1" parent="1" source="w5qXUssnNhhFmJlIJuAB-1" target="w5qXUssnNhhFmJlIJuAB-2">
          <mxGeometry relative="1" as="geometry" />
        </mxCell>
        <mxCell id="w5qXUssnNhhFmJlIJuAB-20" style="edgeStyle=orthogonalEdgeStyle;rounded=0;sketch=1;hachureGap=4;jiggle=2;orthogonalLoop=1;jettySize=auto;html=1;fontFamily=Architects Daughter;fontSource=https%3A%2F%2Ffonts.googleapis.com%2Fcss%3Ffamily%3DArchitects%2BDaughter;fontSize=12;entryX=0.5;entryY=0;entryDx=0;entryDy=0;" edge="1" parent="1" source="w5qXUssnNhhFmJlIJuAB-1" target="w5qXUssnNhhFmJlIJuAB-6">
          <mxGeometry relative="1" as="geometry">
            <Array as="points">
              <mxPoint x="694" y="140" />
            </Array>
          </mxGeometry>
        </mxCell>
        <mxCell id="w5qXUssnNhhFmJlIJuAB-1" value="&lt;span style=&quot;color: rgb(23, 43, 77); font-family: -apple-system, BlinkMacSystemFont, &amp;quot;Segoe UI&amp;quot;, Roboto, Oxygen, Ubuntu, &amp;quot;Fira Sans&amp;quot;, &amp;quot;Droid Sans&amp;quot;, &amp;quot;Helvetica Neue&amp;quot;, sans-serif; font-size: 14px; text-align: left; background-color: rgb(255, 255, 255);&quot;&gt;DRF(草稿)&lt;/span&gt;" style="rounded=1;whiteSpace=wrap;html=1;sketch=1;fillColor=#d5e8d4;strokeColor=#82b366;" vertex="1" parent="1">
          <mxGeometry x="264" y="110" width="120" height="60" as="geometry" />
        </mxCell>
        <mxCell id="w5qXUssnNhhFmJlIJuAB-9" style="edgeStyle=orthogonalEdgeStyle;rounded=0;sketch=1;hachureGap=4;jiggle=2;orthogonalLoop=1;jettySize=auto;html=1;exitX=0.5;exitY=1;exitDx=0;exitDy=0;fontFamily=Architects Daughter;fontSource=https%3A%2F%2Ffonts.googleapis.com%2Fcss%3Ffamily%3DArchitects%2BDaughter;fontSize=12;" edge="1" parent="1" source="w5qXUssnNhhFmJlIJuAB-2" target="w5qXUssnNhhFmJlIJuAB-3">
          <mxGeometry relative="1" as="geometry" />
        </mxCell>
        <mxCell id="w5qXUssnNhhFmJlIJuAB-22" style="edgeStyle=orthogonalEdgeStyle;rounded=0;sketch=1;hachureGap=4;jiggle=2;orthogonalLoop=1;jettySize=auto;html=1;exitX=1;exitY=0.5;exitDx=0;exitDy=0;fontFamily=Architects Daughter;fontSource=https%3A%2F%2Ffonts.googleapis.com%2Fcss%3Ffamily%3DArchitects%2BDaughter;fontSize=12;entryX=0.5;entryY=0;entryDx=0;entryDy=0;" edge="1" parent="1" source="w5qXUssnNhhFmJlIJuAB-2" target="w5qXUssnNhhFmJlIJuAB-6">
          <mxGeometry relative="1" as="geometry">
            <mxPoint x="704" y="370" as="targetPoint" />
          </mxGeometry>
        </mxCell>
        <mxCell id="w5qXUssnNhhFmJlIJuAB-2" value="&lt;span style=&quot;color: rgb(23, 43, 77); font-family: -apple-system, BlinkMacSystemFont, &amp;quot;Segoe UI&amp;quot;, Roboto, Oxygen, Ubuntu, &amp;quot;Fira Sans&amp;quot;, &amp;quot;Droid Sans&amp;quot;, &amp;quot;Helvetica Neue&amp;quot;, sans-serif; font-size: 14px; text-align: left; background-color: rgb(255, 255, 255);&quot;&gt;IDV（身份认证）&lt;/span&gt;" style="rounded=1;whiteSpace=wrap;html=1;sketch=1;fillColor=#d5e8d4;strokeColor=#82b366;" vertex="1" parent="1">
          <mxGeometry x="264" y="230" width="120" height="60" as="geometry" />
        </mxCell>
        <mxCell id="w5qXUssnNhhFmJlIJuAB-15" style="edgeStyle=orthogonalEdgeStyle;rounded=0;sketch=1;hachureGap=4;jiggle=2;orthogonalLoop=1;jettySize=auto;html=1;exitX=0.5;exitY=1;exitDx=0;exitDy=0;fontFamily=Architects Daughter;fontSource=https%3A%2F%2Ffonts.googleapis.com%2Fcss%3Ffamily%3DArchitects%2BDaughter;fontSize=12;" edge="1" parent="1" source="w5qXUssnNhhFmJlIJuAB-3" target="w5qXUssnNhhFmJlIJuAB-11">
          <mxGeometry relative="1" as="geometry" />
        </mxCell>
        <mxCell id="w5qXUssnNhhFmJlIJuAB-16" style="edgeStyle=orthogonalEdgeStyle;rounded=0;sketch=1;hachureGap=4;jiggle=2;orthogonalLoop=1;jettySize=auto;html=1;exitX=1;exitY=0.5;exitDx=0;exitDy=0;fontFamily=Architects Daughter;fontSource=https%3A%2F%2Ffonts.googleapis.com%2Fcss%3Ffamily%3DArchitects%2BDaughter;fontSize=12;" edge="1" parent="1" source="w5qXUssnNhhFmJlIJuAB-3" target="w5qXUssnNhhFmJlIJuAB-7">
          <mxGeometry relative="1" as="geometry" />
        </mxCell>
        <mxCell id="w5qXUssnNhhFmJlIJuAB-3" value="PRO(&lt;span style=&quot;color: rgb(23, 43, 77); font-family: -apple-system, BlinkMacSystemFont, &amp;quot;Segoe UI&amp;quot;, Roboto, Oxygen, Ubuntu, &amp;quot;Fira Sans&amp;quot;, &amp;quot;Droid Sans&amp;quot;, &amp;quot;Helvetica Neue&amp;quot;, sans-serif; font-size: 14px; text-align: left; background-color: rgb(255, 255, 255);&quot;&gt;系统处理&lt;/span&gt;)" style="rounded=1;whiteSpace=wrap;html=1;sketch=1;fillColor=#d5e8d4;strokeColor=#82b366;" vertex="1" parent="1">
          <mxGeometry x="264" y="350" width="120" height="60" as="geometry" />
        </mxCell>
        <mxCell id="w5qXUssnNhhFmJlIJuAB-4" value="CAL(取消)" style="rounded=1;whiteSpace=wrap;html=1;sketch=1;fillColor=#d5e8d4;strokeColor=#82b366;" vertex="1" parent="1">
          <mxGeometry x="74" y="110" width="120" height="60" as="geometry" />
        </mxCell>
        <mxCell id="w5qXUssnNhhFmJlIJuAB-6" value="EXP(失效)" style="rounded=1;whiteSpace=wrap;html=1;sketch=1;hachureGap=4;jiggle=2;fontFamily=Architects Daughter;fontSource=https%3A%2F%2Ffonts.googleapis.com%2Fcss%3Ffamily%3DArchitects%2BDaughter;fontSize=12;fillColor=#d5e8d4;strokeColor=#82b366;" vertex="1" parent="1">
          <mxGeometry x="634" y="480" width="120" height="60" as="geometry" />
        </mxCell>
        <mxCell id="w5qXUssnNhhFmJlIJuAB-19" style="edgeStyle=orthogonalEdgeStyle;rounded=0;sketch=1;hachureGap=4;jiggle=2;orthogonalLoop=1;jettySize=auto;html=1;exitX=0.5;exitY=1;exitDx=0;exitDy=0;entryX=1;entryY=0.5;entryDx=0;entryDy=0;fontFamily=Architects Daughter;fontSource=https%3A%2F%2Ffonts.googleapis.com%2Fcss%3Ffamily%3DArchitects%2BDaughter;fontSize=12;" edge="1" parent="1" source="w5qXUssnNhhFmJlIJuAB-7" target="w5qXUssnNhhFmJlIJuAB-13">
          <mxGeometry relative="1" as="geometry" />
        </mxCell>
        <mxCell id="w5qXUssnNhhFmJlIJuAB-23" style="edgeStyle=orthogonalEdgeStyle;rounded=0;sketch=1;hachureGap=4;jiggle=2;orthogonalLoop=1;jettySize=auto;html=1;exitX=1;exitY=0.5;exitDx=0;exitDy=0;entryX=0;entryY=0.5;entryDx=0;entryDy=0;fontFamily=Architects Daughter;fontSource=https%3A%2F%2Ffonts.googleapis.com%2Fcss%3Ffamily%3DArchitects%2BDaughter;fontSize=12;" edge="1" parent="1" source="w5qXUssnNhhFmJlIJuAB-7" target="w5qXUssnNhhFmJlIJuAB-6">
          <mxGeometry relative="1" as="geometry" />
        </mxCell>
        <mxCell id="w5qXUssnNhhFmJlIJuAB-26" style="edgeStyle=orthogonalEdgeStyle;rounded=0;sketch=1;hachureGap=4;jiggle=2;orthogonalLoop=1;jettySize=auto;html=1;exitX=0;exitY=0.25;exitDx=0;exitDy=0;entryX=1;entryY=0.25;entryDx=0;entryDy=0;fontFamily=Architects Daughter;fontSource=https%3A%2F%2Ffonts.googleapis.com%2Fcss%3Ffamily%3DArchitects%2BDaughter;fontSize=12;" edge="1" parent="1" source="w5qXUssnNhhFmJlIJuAB-7" target="w5qXUssnNhhFmJlIJuAB-11">
          <mxGeometry relative="1" as="geometry" />
        </mxCell>
        <mxCell id="w5qXUssnNhhFmJlIJuAB-7" value="PEC(等待客户处理)" style="rounded=1;whiteSpace=wrap;html=1;sketch=1;hachureGap=4;jiggle=2;fontFamily=Architects Daughter;fontSource=https%3A%2F%2Ffonts.googleapis.com%2Fcss%3Ffamily%3DArchitects%2BDaughter;fontSize=12;fillColor=#d5e8d4;strokeColor=#82b366;" vertex="1" parent="1">
          <mxGeometry x="454" y="480" width="120" height="60" as="geometry" />
        </mxCell>
        <mxCell id="w5qXUssnNhhFmJlIJuAB-14" style="edgeStyle=orthogonalEdgeStyle;rounded=0;sketch=1;hachureGap=4;jiggle=2;orthogonalLoop=1;jettySize=auto;html=1;exitX=0.5;exitY=1;exitDx=0;exitDy=0;fontFamily=Architects Daughter;fontSource=https%3A%2F%2Ffonts.googleapis.com%2Fcss%3Ffamily%3DArchitects%2BDaughter;fontSize=12;" edge="1" parent="1" source="w5qXUssnNhhFmJlIJuAB-11" target="w5qXUssnNhhFmJlIJuAB-13">
          <mxGeometry relative="1" as="geometry" />
        </mxCell>
        <mxCell id="w5qXUssnNhhFmJlIJuAB-18" style="edgeStyle=orthogonalEdgeStyle;rounded=0;sketch=1;hachureGap=4;jiggle=2;orthogonalLoop=1;jettySize=auto;html=1;exitX=1;exitY=0.75;exitDx=0;exitDy=0;entryX=0;entryY=0.75;entryDx=0;entryDy=0;fontFamily=Architects Daughter;fontSource=https%3A%2F%2Ffonts.googleapis.com%2Fcss%3Ffamily%3DArchitects%2BDaughter;fontSize=12;" edge="1" parent="1" source="w5qXUssnNhhFmJlIJuAB-11" target="w5qXUssnNhhFmJlIJuAB-7">
          <mxGeometry relative="1" as="geometry" />
        </mxCell>
        <mxCell id="w5qXUssnNhhFmJlIJuAB-11" value="UNR(审批中)" style="rounded=1;whiteSpace=wrap;html=1;sketch=1;hachureGap=4;jiggle=2;fontFamily=Architects Daughter;fontSource=https%3A%2F%2Ffonts.googleapis.com%2Fcss%3Ffamily%3DArchitects%2BDaughter;fontSize=12;fillColor=#d5e8d4;strokeColor=#82b366;" vertex="1" parent="1">
          <mxGeometry x="264" y="480" width="120" height="60" as="geometry" />
        </mxCell>
        <mxCell id="w5qXUssnNhhFmJlIJuAB-31" style="edgeStyle=orthogonalEdgeStyle;rounded=0;sketch=1;hachureGap=4;jiggle=2;orthogonalLoop=1;jettySize=auto;html=1;exitX=0.5;exitY=1;exitDx=0;exitDy=0;fontFamily=Architects Daughter;fontSource=https%3A%2F%2Ffonts.googleapis.com%2Fcss%3Ffamily%3DArchitects%2BDaughter;fontSize=12;" edge="1" parent="1" source="w5qXUssnNhhFmJlIJuAB-13" target="w5qXUssnNhhFmJlIJuAB-29">
          <mxGeometry relative="1" as="geometry" />
        </mxCell>
        <mxCell id="w5qXUssnNhhFmJlIJuAB-13" value="APV(审批通过)" style="rounded=1;whiteSpace=wrap;html=1;sketch=1;hachureGap=4;jiggle=2;fontFamily=Architects Daughter;fontSource=https%3A%2F%2Ffonts.googleapis.com%2Fcss%3Ffamily%3DArchitects%2BDaughter;fontSize=12;fillColor=#d5e8d4;strokeColor=#82b366;" vertex="1" parent="1">
          <mxGeometry x="264" y="620" width="120" height="60" as="geometry" />
        </mxCell>
        <mxCell id="w5qXUssnNhhFmJlIJuAB-24" value="REJ(开户失败)" style="rounded=1;whiteSpace=wrap;html=1;sketch=1;hachureGap=4;jiggle=2;fontFamily=Architects Daughter;fontSource=https%3A%2F%2Ffonts.googleapis.com%2Fcss%3Ffamily%3DArchitects%2BDaughter;fontSize=12;fillColor=#d5e8d4;strokeColor=#82b366;" vertex="1" parent="1">
          <mxGeometry x="74" y="230" width="120" height="60" as="geometry" />
        </mxCell>
        <mxCell id="w5qXUssnNhhFmJlIJuAB-25" value="CLS(订单关闭)" style="rounded=1;whiteSpace=wrap;html=1;sketch=1;hachureGap=4;jiggle=2;fontFamily=Architects Daughter;fontSource=https%3A%2F%2Ffonts.googleapis.com%2Fcss%3Ffamily%3DArchitects%2BDaughter;fontSize=12;fillColor=#d5e8d4;strokeColor=#82b366;" vertex="1" parent="1">
          <mxGeometry x="74" y="350" width="120" height="60" as="geometry" />
        </mxCell>
        <mxCell id="w5qXUssnNhhFmJlIJuAB-28" style="edgeStyle=orthogonalEdgeStyle;rounded=0;sketch=1;hachureGap=4;jiggle=2;orthogonalLoop=1;jettySize=auto;html=1;exitX=0.5;exitY=1;exitDx=0;exitDy=0;exitPerimeter=0;fontFamily=Architects Daughter;fontSource=https%3A%2F%2Ffonts.googleapis.com%2Fcss%3Ffamily%3DArchitects%2BDaughter;fontSize=12;" edge="1" parent="1" source="w5qXUssnNhhFmJlIJuAB-27" target="w5qXUssnNhhFmJlIJuAB-1">
          <mxGeometry relative="1" as="geometry" />
        </mxCell>
        <mxCell id="w5qXUssnNhhFmJlIJuAB-27" value="" style="strokeWidth=2;html=1;shape=mxgraph.flowchart.start_2;whiteSpace=wrap;sketch=1;hachureGap=4;jiggle=2;fontFamily=Architects Daughter;fontSource=https%3A%2F%2Ffonts.googleapis.com%2Fcss%3Ffamily%3DArchitects%2BDaughter;fontSize=12;" vertex="1" parent="1">
          <mxGeometry x="304" y="20" width="40" height="40" as="geometry" />
        </mxCell>
        <mxCell id="w5qXUssnNhhFmJlIJuAB-29" value="" style="ellipse;html=1;shape=endState;fillColor=#000000;strokeColor=#ff0000;sketch=1;hachureGap=4;jiggle=2;fontFamily=Architects Daughter;fontSource=https%3A%2F%2Ffonts.googleapis.com%2Fcss%3Ffamily%3DArchitects%2BDaughter;fontSize=12;" vertex="1" parent="1">
          <mxGeometry x="309" y="750" width="30" height="30" as="geometry" />
        </mxCell>
      </root>
    </mxGraphModel>
  </diagram>
</mxfile>
